<svg xmlns="http://www.w3.org/2000/svg" xmlns:xlink="http://www.w3.org/1999/xlink" width="160" height="160" viewBox="0 0 160 160"><defs><circle id="a" cx="80" cy="80" r="80"/></defs><g fill="none" fill-rule="evenodd"><path d="M-16-16h192v192H-16z"/><mask id="b" fill="#fff"><use xlink:href="#a"/></mask><use fill="#FFF" xlink:href="#a"/><g mask="url(#b)"><g transform="translate(107.333 -20)"><rect width="100" height="124" fill="#CCD2E6" rx="4"/><path fill="#000" fill-opacity=".1" d="M12 33.01c0-.558.452-1.01.993-1.01h30.014c.549 0 .993.443.993 1.01v1.98c0 .558-.452 1.01-.993 1.01H12.993A.996.996 0 0 1 12 34.99v-1.98zm0 20c0-.558.455-1.01.992-1.01h18.016c.548 0 .992.443.992 1.01v1.98c0 .558-.455 1.01-.992 1.01H12.992A.995.995 0 0 1 12 54.99v-1.98zm0 20A1 1 0 0 1 13.002 72h19.996A1 1 0 0 1 34 73.01v1.98A1 1 0 0 1 32.998 76H13.002A1 1 0 0 1 12 74.99v-1.98zm0 20c0-.558.452-1.01.993-1.01h30.014c.549 0 .993.443.993 1.01v1.98c0 .558-.452 1.01-.993 1.01H12.993A.996.996 0 0 1 12 94.99v-1.98zm0 8c0-.558.457-1.01.997-1.01h64.006c.55 0 .997.443.997 1.01v1.98a1.01 1.01 0 0 1-.997 1.01H12.997a.998.998 0 0 1-.997-1.01v-1.98zm0-20c0-.558.45-1.01.992-1.01h50.016c.548 0 .992.443.992 1.01v1.98c0 .558-.45 1.01-.992 1.01H12.992A.996.996 0 0 1 12 82.99v-1.98zm0-20c0-.558.45-1.01 1.009-1.01H50.99c.557 0 1.009.443 1.009 1.01v1.98c0 .558-.45 1.01-1.009 1.01H13.01A1.004 1.004 0 0 1 12 62.99v-1.98zm44 0c0-.558.451-1.01 1.003-1.01h23.994A1 1 0 0 1 82 61.01v1.98c0 .558-.451 1.01-1.003 1.01H57.003A1 1 0 0 1 56 62.99v-1.98zm-44-20c0-.558.446-1.01.999-1.01h60.002c.552 0 .999.443.999 1.01v1.98c0 .558-.446 1.01-.999 1.01H12.999A.999.999 0 0 1 12 42.99v-1.98z"/></g></g><g mask="url(#b)"><g transform="translate(-26 46)"><rect width="100" height="124" fill="#CBD2E6" rx="4"/><path fill="#000" fill-opacity=".1" d="M12 33.01c0-.558.452-1.01.993-1.01h30.014c.549 0 .993.443.993 1.01v1.98c0 .558-.452 1.01-.993 1.01H12.993A.996.996 0 0 1 12 34.99v-1.98zm0 20c0-.558.455-1.01.992-1.01h18.016c.548 0 .992.443.992 1.01v1.98c0 .558-.455 1.01-.992 1.01H12.992A.995.995 0 0 1 12 54.99v-1.98zm0 20A1 1 0 0 1 13.002 72h19.996A1 1 0 0 1 34 73.01v1.98A1 1 0 0 1 32.998 76H13.002A1 1 0 0 1 12 74.99v-1.98zm0 20c0-.558.452-1.01.993-1.01h30.014c.549 0 .993.443.993 1.01v1.98c0 .558-.452 1.01-.993 1.01H12.993A.996.996 0 0 1 12 94.99v-1.98zm0 8c0-.558.457-1.01.997-1.01h64.006c.55 0 .997.443.997 1.01v1.98a1.01 1.01 0 0 1-.997 1.01H12.997a.998.998 0 0 1-.997-1.01v-1.98zm0-20c0-.558.45-1.01.992-1.01h50.016c.548 0 .992.443.992 1.01v1.98c0 .558-.45 1.01-.992 1.01H12.992A.996.996 0 0 1 12 82.99v-1.98zm0-20c0-.558.45-1.01 1.009-1.01H50.99c.557 0 1.009.443 1.009 1.01v1.98c0 .558-.45 1.01-1.009 1.01H13.01A1.004 1.004 0 0 1 12 62.99v-1.98zm44 0c0-.558.451-1.01 1.003-1.01h23.994A1 1 0 0 1 82 61.01v1.98c0 .558-.451 1.01-1.003 1.01H57.003A1 1 0 0 1 56 62.99v-1.98zm-44-20c0-.558.446-1.01.999-1.01h60.002c.552 0 .999.443.999 1.01v1.98c0 .558-.446 1.01-.999 1.01H12.999A.999.999 0 0 1 12 42.99v-1.98z"/></g></g><path fill="#FFF5BD" d="M130 142.454V28h-20c-4.42 0-8-3.58-8-8V0H38c-4.42 0-8 3.58-8 8v134.454C43.696 153.433 61.081 160 80 160s36.304-6.567 50-17.546z"/><path fill="#6C7077" d="M130 28h-20c-4.42 0-8-3.58-8-8V0l28 28z"/><path fill="#000" fill-opacity=".25" d="M42 33.01c0-.558.452-1.01.993-1.01h30.014c.549 0 .993.443.993 1.01v1.98c0 .558-.452 1.01-.993 1.01H42.993A.996.996 0 0 1 42 34.99v-1.98zm0 20c0-.558.455-1.01.992-1.01h18.016c.548 0 .992.443.992 1.01v1.98c0 .558-.455 1.01-.992 1.01H42.992A.995.995 0 0 1 42 54.99v-1.98zm0 62c0-.558.455-1.01.992-1.01h18.016c.548 0 .992.443.992 1.01v1.98c0 .558-.455 1.01-.992 1.01H42.992a.995.995 0 0 1-.992-1.01v-1.98zm0 8c0-.558.45-1.01 1.009-1.01H80.99c.557 0 1.009.443 1.009 1.01v1.98c0 .558-.45 1.01-1.009 1.01H43.01a1.004 1.004 0 0 1-1.01-1.01v-1.98zm44 0c0-.558.451-1.01 1.003-1.01h23.994a1 1 0 0 1 1.003 1.01v1.98c0 .558-.451 1.01-1.003 1.01H87.003A1 1 0 0 1 86 124.99v-1.98zm-44-50A1 1 0 0 1 43.002 72h19.996A1 1 0 0 1 64 73.01v1.98A1 1 0 0 1 62.998 76H43.002A1 1 0 0 1 42 74.99v-1.98zm0 20c0-.558.452-1.01.993-1.01h30.014c.549 0 .993.443.993 1.01v1.98c0 .558-.452 1.01-.993 1.01H42.993A.996.996 0 0 1 42 94.99v-1.98zm0 8c0-.558.457-1.01.997-1.01h64.006c.55 0 .997.443.997 1.01v1.98a1.01 1.01 0 0 1-.997 1.01H42.997a.998.998 0 0 1-.997-1.01v-1.98zm0-20c0-.558.45-1.01.992-1.01h50.016c.548 0 .992.443.992 1.01v1.98c0 .558-.45 1.01-.992 1.01H42.992A.996.996 0 0 1 42 82.99v-1.98zm0-20c0-.558.45-1.01 1.009-1.01H80.99c.557 0 1.009.443 1.009 1.01v1.98c0 .558-.45 1.01-1.009 1.01H43.01A1.004 1.004 0 0 1 42 62.99v-1.98zm44 0c0-.558.451-1.01 1.003-1.01h23.994A1 1 0 0 1 112 61.01v1.98c0 .558-.451 1.01-1.003 1.01H87.003A1 1 0 0 1 86 62.99v-1.98zm-44-20c0-.558.446-1.01.999-1.01h60.002c.552 0 .999.443.999 1.01v1.98c0 .558-.446 1.01-.999 1.01H42.999A.999.999 0 0 1 42 42.99v-1.98z"/></g></svg>