<svg xmlns="http://www.w3.org/2000/svg" width="119" height="34" viewBox="0 0 119 34"><g fill="none" fill-rule="evenodd"><path fill="#384D9D" d="M2.341 10.542A3.008 3.008 0 0 1 5.346 7.53a3.008 3.008 0 0 1 3.002 3.012 3.008 3.008 0 0 1-3.002 3.013 3.008 3.008 0 0 1-3.005-3.013zm-2.28 6.449l8.468-.182v15.123h2.043v1.085H.54v-1.085h2.402V18.315H0l.06-1.324zM58.978 3.01A3.008 3.008 0 0 1 61.983 0a3.007 3.007 0 0 1 3.002 3.01 3.007 3.007 0 0 1-3.002 3.012 3.008 3.008 0 0 1-3.005-3.011z"/><path fill="#343E62" d="M112.976 31.932h2.643v1.085h-9.91v-1.085h1.982V21.33s-.302-2.74-2.704-2.74c-1.95 0-3.293.95-4.024 1.665v11.677h2.042v1.085l-9.79.062v-1.086h2.401V19.22s-.043-.212-.643-.558c-.601-.347-1.083-.347-1.083-.347h-.914l.06-1.324 7.927-.182v2.387c2.372-2.2 2.732-2.948 6.426-2.948 3.904 0 5.587 2.67 5.587 3.815v11.869zM33.394 11.326H30.75V9.64h9.61v1.686h-1.32s-.66.06-1.384.724c-.718.662-.96 1.204-.96 1.204l-9.31 20.186h-2.822l-9.491-22.114h-2.881V9.64h13.093v1.686h-4.263l6.967 17.173 6.305-14.763s.36-1.144.061-1.686c-.302-.542-.962-.724-.962-.724zm7.026 5.665l8.47-.182v15.123h2.042v1.085H40.903v-1.085h2.402V18.315H40.36l.06-1.324zM55.437 3.674c-.54.904-2.882-2.41-6.85 1.747-2.82 3.496-1.439 8.977-2.941 8.798-1.5-.181-1.62-.664-1.56-2.592.06-3.555 3.543-11.085 8.527-10.964 2.944.18 3.352 2.13 2.824 3.011zm35.195 20.923v.241s0 8.858-9.55 8.858c-9.549 0-9.368-8.617-9.368-8.617l-.003-.241s0-8.858 9.553-8.858c9.549 0 9.368 8.617 9.368 8.617zM81.174 32.1c5.283 0 5.042-14.522 0-14.522-5.045 0-5.286 14.522 0 14.522zM68.83 28.137l1.262.903s-1.863 4.64-8.108 4.64c-6.246 0-8.948-4.82-8.948-8.314 0-3.495 2.64-9.038 9.669-9.038 7.026 0 6.547 3.252 6.547 3.854 0 .604-.18 3.136-2.703 3.136-2.523 0-2.643-2.532-2.643-2.532s.359-1.447.359-1.808c0-.36-.118-1.144-1.56-1.144-1.442 0-3.545 1.446-3.545 6.326s2.284 7.11 4.746 7.11c2.461 0 4.924-3.133 4.924-3.133zm46.907-17.419a3.066 3.066 0 0 1 3.063 3.072 3.066 3.066 0 0 1-3.063 3.072 3.07 3.07 0 0 1-3.065-3.072 3.069 3.069 0 0 1 3.065-3.072zm0 5.843a2.767 2.767 0 0 0 2.763-2.77 2.768 2.768 0 0 0-2.763-2.773 2.768 2.768 0 0 0-2.763 2.772c0 1.53 1.237 2.77 2.763 2.77zm-1.407-1.107v-3.577h1.58c.318 0 .56.031.723.096.167.065.3.178.4.34.098.163.15.343.15.54a.896.896 0 0 1-.247.64c-.165.176-.42.286-.763.334.128.06.222.12.288.178.135.127.268.285.39.476l.622.973h-.595l-.471-.744a7.548 7.548 0 0 0-.34-.493 1.243 1.243 0 0 0-.24-.24.75.75 0 0 0-.216-.095 1.418 1.418 0 0 0-.262-.017h-.548v1.59h-.471zm.47-1.998h1.015c.215 0 .385-.023.508-.067a.549.549 0 0 0 .276-.215.588.588 0 0 0 .095-.322.534.534 0 0 0-.184-.417c-.124-.11-.316-.164-.58-.164h-1.13v1.185z"/></g></svg>