<svg xmlns="http://www.w3.org/2000/svg" xmlns:xlink="http://www.w3.org/1999/xlink" width="160" height="160" viewBox="0 0 160 160"><defs><circle id="a" cx="80" cy="80" r="80"/></defs><g fill="none" fill-rule="evenodd"><path d="M-16-16h192v192H-16z"/><mask id="b" fill="#fff"><use xlink:href="#a"/></mask><use fill="#FFF" xlink:href="#a"/><g fill-rule="nonzero" mask="url(#b)"><path fill="#B6BCCE" d="M79.696 130.348a3.07 3.07 0 0 1-1.647-.478L10.573 86.957a3.068 3.068 0 0 1 .276-5.33L79.696 38.39l68.847 43.235a3.067 3.067 0 0 1 .276 5.33L81.343 129.87a3.07 3.07 0 0 1-1.647.478z"/><path fill="#E6E6E6" d="M125.703 133.413H33.69V23.065A3.067 3.067 0 0 1 36.757 20h85.879a3.067 3.067 0 0 1 3.067 3.065v110.348z"/><path fill="#CBD2E6" d="M147.172 161c-.257 0-.518-.034-.773-.098L75.856 142.51l.773-21.359 73.61-36.782v73.565c0 .95-.441 1.845-1.193 2.427a3.07 3.07 0 0 1-1.874.638z"/><path fill="#D8E0F5" d="M147.172 161H12.22a3.065 3.065 0 0 1-3.067-3.065V84.37l139.488 70.874a3.061 3.061 0 0 1 1.503 3.448 3.067 3.067 0 0 1-2.972 2.308z"/><path fill="#B3B3B3" d="M104.233 47.587H55.16a3.065 3.065 0 1 1 0-6.13h49.073a3.065 3.065 0 1 1 0 6.13zm0 21.456H55.16a3.065 3.065 0 1 1 0-6.13h49.073a3.065 3.065 0 1 1 0 6.13zM82.763 90.5H55.16a3.065 3.065 0 1 1 0-6.13h27.603a3.065 3.065 0 1 1 0 6.13z"/></g></g></svg>