<svg xmlns="http://www.w3.org/2000/svg" width="84" height="28" viewBox="0 0 84 28">
    <g fill="#FFF" fill-rule="evenodd">
        <path fill-opacity=".4" d="M1.63881513,7.44163019 C1.63881513,6.26744151 2.58017926,5.31559245 3.74222457,5.31559245 C4.90247937,5.31559245 5.8438435,6.26744151 5.8438435,7.44163019 C5.8438435,8.6162717 4.90247937,9.56812075 3.74222457,9.56812075 C2.58017926,9.56812075 1.63881513,8.6162717 1.63881513,7.44163019 Z M0.0421666673,11.9933887 L5.97056732,11.8652377 L5.97056732,22.5402566 L7.40029487,22.5402566 L7.40029487,23.3064453 L0.37788854,23.3064453 L0.37788854,22.5402566 L2.05918368,22.5402566 L2.05918368,12.9280302 L8.95258326e-05,12.9280302 L0.0421666673,11.9933887 Z M41.2850616,2.12576604 C41.2850616,0.952030189 42.2264258,0.000181132076 43.3889187,0.000181132076 C44.5491735,0.000181132076 45.4905376,0.952030189 45.4905376,2.12576604 C45.4905376,3.29950189 44.5491735,4.25135094 43.3889187,4.25135094 C42.2264258,4.25135094 41.2850616,3.29950189 41.2850616,2.12576604 Z"/>
        <path d="M79.0834949,22.5402566 L80.9335463,22.5402566 L80.9335463,23.3064453 L73.9957418,23.3064453 L73.9957418,22.5402566 L75.3833922,22.5402566 L75.3833922,15.0563321 C75.3833922,15.0563321 75.1721113,13.1222943 73.4908161,13.1222943 C72.1255472,13.1222943 71.1859736,13.7929358 70.6738858,14.2973887 L70.6738858,22.5402566 L72.1031657,22.5402566 L72.1031657,23.3064453 L65.2499632,23.349917 L65.2499632,22.5832755 L66.9312584,22.5832755 L66.9312584,13.5669736 C66.9312584,13.5669736 66.9012672,13.4175396 66.4809434,13.1730113 C66.060172,12.9280302 65.7226596,12.9280302 65.7226596,12.9280302 L65.0834452,12.9280302 L65.1250747,11.9933887 L70.6738858,11.8652377 L70.6738858,13.549766 C72.33459,11.9965585 72.5861576,11.4694642 75.1721113,11.4694642 C77.905335,11.4694642 79.0834949,13.3541434 79.0834949,14.1619925 L79.0834949,22.5402566 Z M23.3755083,7.99485283 L21.525457,7.99485283 L21.525457,6.80481509 L28.252428,6.80481509 L28.252428,7.99485283 L27.3289691,7.99485283 C27.3289691,7.99485283 26.8665681,8.03741887 26.3598519,8.50564528 C25.8571644,8.97341887 25.6879606,9.35606038 25.6879606,9.35606038 L19.1704799,23.6043623 L17.1955401,23.6043623 L10.551828,7.99485283 L8.53481098,7.99485283 L8.53481098,6.80481509 L17.7004657,6.80481509 L17.7004657,7.99485283 L14.7161221,7.99485283 L19.5930419,20.1166642 L24.0066654,9.69568302 C24.0066654,9.69568302 24.2586806,8.88828679 24.0491902,8.50564528 C23.8379092,8.12300377 23.3755083,7.99485283 23.3755083,7.99485283 Z M28.2941918,11.9933887 L34.2225925,11.8652377 L34.2225925,22.5402566 L35.65232,22.5402566 L35.65232,23.3064453 L28.6321519,23.3064453 L28.6321519,22.5402566 L30.313447,22.5402566 L30.313447,12.9280302 L28.2521147,12.9280302 L28.2941918,11.9933887 Z M38.8055989,2.59363019 C38.4273523,3.23121509 36.7885819,0.8928 34.0114906,3.82668679 C32.0369983,6.29415849 33.0038773,10.1635925 31.9519488,10.0368 C30.902706,9.90910189 30.8181041,9.56812075 30.8601813,8.20736604 C30.902706,5.69778113 33.3400468,0.382460377 36.8288685,0.468045283 C38.8897532,0.595290566 39.1757882,1.97098868 38.8055989,2.59363019 Z M63.4422576,17.3629132 L63.4422576,17.5327245 C63.4422576,17.5327245 63.4422576,23.7854038 56.7573637,23.7854038 C50.073365,23.7854038 50.2000441,17.7029887 50.2000441,17.7029887 L50.1978059,17.5327245 C50.1978059,17.5327245 50.1978059,11.2800453 56.8844904,11.2800453 C63.5689367,11.2800453 63.4422576,17.3629132 63.4422576,17.3629132 Z M56.8218223,22.6583094 C60.5201344,22.6583094 60.3513782,12.4071396 56.8218223,12.4071396 C53.2904758,12.4071396 53.1217196,22.6583094 56.8218223,22.6583094 Z M48.1808784,19.8613132 L49.0640508,20.4988981 C49.0640508,20.4988981 47.7605546,23.7742189 43.3890082,23.7742189 C39.0165665,23.7742189 37.1248857,20.3716528 37.1248857,17.9050868 C37.1248857,15.4385208 38.9726989,11.5256151 43.8934863,11.5256151 C48.8120355,11.5256151 48.4763137,13.8210113 48.4763137,14.2462189 C48.4763137,14.6723321 48.3500822,16.4596528 46.5841852,16.4596528 C44.8182881,16.4596528 44.7341339,14.6723321 44.7341339,14.6723321 C44.7341339,14.6723321 44.9852538,13.6512 44.9852538,13.3962566 C44.9852538,13.141766 44.9028901,12.5884075 43.8934863,12.5884075 C42.8840825,12.5884075 41.4118302,13.6095396 41.4118302,17.053766 C41.4118302,20.4988981 43.0107616,22.072483 44.7341339,22.072483 C46.4570585,22.072483 48.1808784,19.8613132 48.1808784,19.8613132 Z M81.0160891,7.56566038 C82.2005158,7.56566038 83.1597851,8.53562264 83.1597851,9.73426415 C83.1597851,10.9324528 82.2005158,11.9028679 81.0160891,11.9028679 C79.8316623,11.9028679 78.8701549,10.9324528 78.8701549,9.73426415 C78.8701549,8.53562264 79.8316623,7.56566038 81.0160891,7.56566038 Z M81.0160891,11.6900377 C82.0841323,11.6900377 82.9502947,10.8142642 82.9502947,9.73426415 C82.9502947,8.65381132 82.0841323,7.77713208 81.0160891,7.77713208 C79.9480459,7.77713208 79.0818835,8.65381132 79.0818835,9.73426415 C79.0818835,10.8142642 79.9480459,11.6900377 81.0160891,11.6900377 Z M80.030902,10.9089509 L80.030902,8.38351698 L81.1365461,8.38351698 C81.359913,8.38351698 81.5286692,8.40570566 81.6432623,8.45144151 C81.7600935,8.49717736 81.8527527,8.57687547 81.9230305,8.69189434 C81.9915178,8.80691321 82.0277757,8.93370566 82.0277757,9.0722717 C82.0277757,9.25204528 81.969584,9.40283774 81.8549909,9.52464906 C81.7399502,9.64872453 81.5613462,9.72615849 81.3214169,9.76057358 C81.4104951,9.80223396 81.4762966,9.84434717 81.52285,9.88555472 C81.6172998,9.97521509 81.709959,10.0870642 81.7963515,10.2215547 L82.2309994,10.9089509 L81.8142566,10.9089509 L81.4848016,10.3832151 C81.3881137,10.2324226 81.3093309,10.1164981 81.2471105,10.0354415 C81.1830995,9.95619623 81.1266982,9.89913962 81.0783543,9.86608302 C81.0282198,9.83483774 80.9780854,9.81129057 80.9279509,9.79906415 C80.8894548,9.79091321 80.8290248,9.78729057 80.7444229,9.78729057 L80.3603571,9.78729057 L80.3603571,10.9089509 L80.030902,10.9089509 Z M80.3603571,9.49838491 L81.070297,9.49838491 C81.221148,9.49838491 81.3397697,9.48208302 81.4261621,9.45083774 C81.5107641,9.41868679 81.5752227,9.36796981 81.6195379,9.29913962 C81.6634056,9.22940377 81.6857871,9.15423396 81.6857871,9.0722717 C81.6857871,8.95317736 81.6432623,8.85536604 81.5573175,8.77793208 C81.4704774,8.70049811 81.3357411,8.66200755 81.1508702,8.66200755 L80.3603571,8.66200755 L80.3603571,9.49838491 Z"/>
    </g>
</svg>
