<svg xmlns="http://www.w3.org/2000/svg" width="24" height="24" viewBox="0 0 24 24">
    <path fill="#E1EBFF" fill-rule="evenodd" d="M9.016,11.416 C8.28,10.555 7.202,10 6,10 L4,10 C1.794,10 0,11.794 0,14 L0,18 C0,18.552 0.447,19 1,19 L6,19 L6,16 C6,13.949 7.244,12.186 9.016,11.416 M20,10 L18,10 C16.798,10 15.72,10.555 14.984,11.416 C16.756,12.186 18,13.949 18,16 L18,19 L23,19 C23.553,19 24,18.552 24,18 L24,14 C24,11.794 22.206,10 20,10 M19,9 C20.657,9 22,7.657 22,6 C22,4.343 20.657,3 19,3 C17.343,3 16,4.343 16,6 C16,7.657 17.343,9 19,9 M5,9 C3.343,9 2,7.657 2,6 C2,4.343 3.343,3 5,3 C6.657,3 8,4.343 8,6 C8,7.657 6.657,9 5,9 Z M9,8 C9,6.343 10.343,5 12,5 C13.657,5 15,6.343 15,8 C15,9.657 13.657,11 12,11 C10.343,11 9,9.657 9,8 Z M13,12 C15.206,12 17,13.794 17,16 L17,20 C17,20.552 16.553,21 16,21 L8,21 C7.447,21 7,20.552 7,20 L7,16 C7,13.794 8.794,12 11,12 L13,12 Z"/>
</svg>
