<svg xmlns="http://www.w3.org/2000/svg" width="24" height="24" viewBox="0 0 24 24">
    <path fill="#E1EBFF" fill-rule="evenodd" d="M21.5845,2.189 C21.3235,2 20.9875,1.95 20.6835,2.051 L16.0005,3.612 L16.0005,21.618 L21.4475,18.895 C21.7865,18.725 22.0005,18.379 22.0005,18 L22.0005,3 C22.0005,2.679 21.8455,2.377 21.5845,2.189 L21.5845,2.189 Z M9.0005,20.054 L15.0005,22 L15.0005,3.946 L9.0005,2 L9.0005,20.054 Z M2.6835,4.051 L8.0005,2.279 L8.0005,20.181 L3.1645,20.986 C2.8735,21.035 2.5785,20.953 2.3535,20.763 C2.1295,20.573 2.0005,20.294 2.0005,20 L2.0005,5 C2.0005,4.569 2.2755,4.188 2.6835,4.051 L2.6835,4.051 Z"/>
</svg>
