<svg xmlns="http://www.w3.org/2000/svg" width="24" height="18" viewBox="0 0 24 18">
    <g fill="none" fill-rule="evenodd">
        <path fill="none" d="M0-3h24v24H0z"/>
        <path fill="#FFF" d="M9.016 8.416C8.28 7.555 7.202 7 6 7H4c-2.206 0-4 1.794-4 4v4a1 1 0 0 0 1 1h5v-3a5.003 5.003 0 0 1 3.016-4.584M20 7h-2c-1.202 0-2.28.555-3.016 1.416A5.003 5.003 0 0 1 18 13v3h5a1 1 0 0 0 1-1v-4c0-2.206-1.794-4-4-4m-1-1a3 3 0 1 0 0-6 3 3 0 0 0 0 6M5 6a3 3 0 1 1 0-6 3 3 0 0 1 0 6zm4-1a3 3 0 1 1 6 0 3 3 0 0 1-6 0zm4 4c2.206 0 4 1.794 4 4v4a1 1 0 0 1-1 1H8a1 1 0 0 1-1-1v-4c0-2.206 1.794-4 4-4h2z"/>
    </g>
</svg>
