<svg xmlns="http://www.w3.org/2000/svg" xmlns:xlink="http://www.w3.org/1999/xlink" width="164" height="176" viewBox="0 0 164 176">
    <defs>
        <circle id="a" cx="80" cy="80" r="80"/>
        <path id="c" d="M58 172.338V30C58 16.745 68.745 6 82 6s24 10.745 24 24v142.338A79.967 79.967 0 0 1 82 176a79.967 79.967 0 0 1-24-3.662zM106 110h20v32h-20v-32zM26 31c10.71 0 19.454 8.419 19.975 19L46 94H6V50c.546-10.581 9.29-19 20-19zm92 48c0-11.046 8.954-20 20-20s20 8.954 20 20v31h-40V79zm40 31c0 17.673-14.327 32-32 32v-32h32zM38 126c-17.673 0-32-14.327-32-32h32v32zm0-32h20v32H38V94z"/>
        <filter id="d" width="106.6%" height="105.9%" x="-3.3%" y="-2.9%" filterUnits="objectBoundingBox">
            <feOffset dx="-10" in="SourceAlpha" result="shadowOffsetInner1"/>
            <feComposite in="shadowOffsetInner1" in2="SourceAlpha" k2="-1" k3="1" operator="arithmetic" result="shadowInnerInner1"/>
            <feColorMatrix in="shadowInnerInner1" values="0 0 0 0 0 0 0 0 0 0 0 0 0 0 0 0 0 0 0.1 0"/>
        </filter>
    </defs>
    <g fill="none" fill-rule="evenodd">
        <path fill="none" d="M-14 0h192v192H-14z"/>
        <g transform="translate(2 16)">
            <mask id="b" fill="#fff">
                <use xlink:href="#a"/>
            </mask>
            <use fill="#FFF" xlink:href="#a"/>
            <path fill="#FFF5BD" d="M159.438 89.531c-7.367 5.15-17.039 9.838-30.137 13.006-55.055 13.317-85.734-19.48-121.389 12.195C20.842 141.52 48.262 160 80 160c40.958 0 74.726-30.779 79.438-70.469z" mask="url(#b)"/>
            <path fill="#CBD2E6" d="M3.118 102.192c7.76.42 16.95 2.245 28.777 5.808 36.355 10.953 78.61 14.408 118.68 9.705C137.1 142.877 110.55 160 80 160c-36.483 0-67.262-24.421-76.882-57.808z" mask="url(#b)"/>
        </g>
        <g>
            <use fill="#4AB78B" xlink:href="#c"/>
            <use fill="#000" filter="url(#d)" xlink:href="#c"/>
        </g>
        <path fill="#BDC484" fill-rule="nonzero" d="M100.998 103a1 1 0 0 1 0-2h10.004a1 1 0 0 1 0 2h-10.004zm0-28a1 1 0 0 1 0-2h10.004a1 1 0 0 1 0 2h-10.004zm0 80a1 1 0 0 1 0-2h10.004a1 1 0 0 1 0 2h-10.004zm0 14a1 1 0 0 1 0-2h10.004a1 1 0 0 1 0 2h-10.004zm-48 0a1 1 0 0 1 0-2h10.004a1 1 0 0 1 0 2H52.998zm0-14a1 1 0 0 1 0-2h10.004a1 1 0 0 1 0 2H52.998zm0-14a1 1 0 0 1 0-2h10.004a1 1 0 0 1 0 2H52.998zm48-52a1 1 0 0 1 0-2h10.004a1 1 0 0 1 0 2h-10.004zm-48 0a1 1 0 0 1 0-2h10.004a1 1 0 0 1 0 2H52.998zm0-14a1 1 0 0 1 0-2h10.004a1 1 0 0 1 0 2H52.998zm0-14a1 1 0 0 1 0-2h10.004a1 1 0 0 1 0 2H52.998zm60 35a1 1 0 0 1 0-2h10.004a1 1 0 0 1 0 2h-10.004zm-112-28a1 1 0 0 1 0-2h10.004a1 1 0 0 1 0 2H.998zm0 15a1 1 0 0 1 0-2h10.004a1 1 0 0 1 0 2H.998zm0 14a1 1 0 0 1 0-2h10.004a1 1 0 0 1 0 2H.998zm0-43a1 1 0 0 1 0-2h10.004a1 1 0 0 1 0 2H.998zm5.624-19.134l.001-1.412a1 1 0 0 1 1.413-.002l7.074 7.074a1 1 0 0 1-1.414 1.414l-7.074-7.074zm37.208-1.414l1.413.002a1 1 0 0 1 0 1.412L38.17 41.94a1 1 0 0 1-1.414-1.414l7.074-7.074zM25 26l1-1a1 1 0 0 1 1 1v10a1 1 0 1 1-2 0V26zm15.998 42a1 1 0 0 1 0-2h10.004a1 1 0 0 1 0 2H40.998zm0-14a1 1 0 0 1 0-2h10.004a1 1 0 0 1 0 2H40.998zm72 28a1 1 0 0 1 0-2h10.004a1 1 0 0 1 0 2h-10.004zm5.624-19.134a1 1 0 0 1 1.414-1.414l7.074 7.074a1 1 0 0 1-1.414 1.414l-7.074-7.074zm37.208-1.414a1 1 0 0 1 1.414 1.414l-7.074 7.074a1 1 0 0 1-1.414-1.414l7.074-7.074zM137 54a1 1 0 1 1 2 0v10a1 1 0 1 1-2 0V54zm-16 83a1 1 0 1 1 2 0v10a1 1 0 1 1-2 0v-10zm-82-16a1 1 0 1 1 2 0v10a1 1 0 1 1-2 0v-10zm113.998-11a1 1 0 0 1 0-2h10.004a1 1 0 0 1 0 2h-10.004zm0-14a1 1 0 0 1 0-2h10.004a1 1 0 0 1 0 2h-10.004zm0-14a1 1 0 0 1 0-2h10.004a1 1 0 0 1 0 2h-10.004zm-100-35a1 1 0 0 1 0-2h10.004a1 1 0 0 1 0 2H52.998zm0-14a1 1 0 0 1 0-2h10.004a1 1 0 0 1 0 2H52.998zm1.866-15.769a1 1 0 0 1 1-1.732l8.664 5.002a1 1 0 0 1-1 1.732l-8.664-5.002zm51.664-1.732a1 1 0 0 1 1 1.732l-8.664 5.002a1 1 0 0 1-1-1.732l8.664-5.002zm-92.866 91.304a1 1 0 0 1 1 1.732l-8.664 5.002a1 1 0 0 1-1-1.732l8.664-5.002zm123.837 28.061a1 1 0 0 1 1.732-1l5.002 8.664a1 1 0 0 1-1.732 1l-5.002-8.664zm11.365-10.633a1 1 0 0 1 1-1.732l8.664 5.002a1 1 0 0 1-1 1.732l-8.664-5.002zM65.5 5.864a1 1 0 0 1 1.732-1l5.002 8.664a1 1 0 0 1-1.732 1l-5.002-8.664zm31.002-1a1 1 0 0 1 1.732 1l-5.002 8.664a1 1 0 0 1-1.732-1l5.002-8.664zM23.635 117.168a1 1 0 0 1 1.732 1l-5.002 8.664a1 1 0 0 1-1.732-1l5.002-8.664zM81 1a1 1 0 1 1 2 0v10a1 1 0 1 1-2 0V1zm19.998 60a1 1 0 0 1 0-2h10.004a1 1 0 0 1 0 2h-10.004zm0-14a1 1 0 0 1 0-2h10.004a1 1 0 0 1 0 2h-10.004zm0-14a1 1 0 0 1 0-2h10.004a1 1 0 0 1 0 2h-10.004zM74.5 60a1.5 1.5 0 1 1 0-3 1.5 1.5 0 0 1 0 3zm16-16a1.5 1.5 0 1 1 0-3 1.5 1.5 0 0 1 0 3zm-16-16a1.5 1.5 0 1 1 0-3 1.5 1.5 0 0 1 0 3zm8 40a1.5 1.5 0 1 1 0-3 1.5 1.5 0 0 1 0 3zm8 24a1.5 1.5 0 1 1 0-3 1.5 1.5 0 0 1 0 3zm-16 16a1.5 1.5 0 1 1 0-3 1.5 1.5 0 0 1 0 3zm-24 0a1.5 1.5 0 1 1 0-3 1.5 1.5 0 0 1 0 3zm-24-16a1.5 1.5 0 1 1 0-3 1.5 1.5 0 0 1 0 3zm-8-16a1.5 1.5 0 1 1 0-3 1.5 1.5 0 0 1 0 3zm8-8a1.5 1.5 0 1 1 0-3 1.5 1.5 0 0 1 0 3zm13 14a1.5 1.5 0 1 1 0-3 1.5 1.5 0 0 1 0 3zm-8-32a1.5 1.5 0 1 1 0-3 1.5 1.5 0 0 1 0 3zm-11-8a1.5 1.5 0 1 1 0-3 1.5 1.5 0 0 1 0 3zm8 72a1.5 1.5 0 1 1 0-3 1.5 1.5 0 0 1 0 3zm40 16a1.5 1.5 0 1 1 0-3 1.5 1.5 0 0 1 0 3zm32 5a1.5 1.5 0 1 1 0-3 1.5 1.5 0 0 1 0 3zm24-8a1.5 1.5 0 1 1 0-3 1.5 1.5 0 0 1 0 3zm16-16a1.5 1.5 0 1 1 0-3 1.5 1.5 0 0 1 0 3zm-8-24a1.5 1.5 0 1 1 0-3 1.5 1.5 0 0 1 0 3zm5-12a1.5 1.5 0 1 1 0-3 1.5 1.5 0 0 1 0 3zm8 24a1.5 1.5 0 1 1 0-3 1.5 1.5 0 0 1 0 3zm-24 8a1.5 1.5 0 1 1 0-3 1.5 1.5 0 0 1 0 3zm24 24a1.5 1.5 0 1 1 0-3 1.5 1.5 0 0 1 0 3zm-40-8a1.5 1.5 0 1 1 0-3 1.5 1.5 0 0 1 0 3zm-16 0a1.5 1.5 0 1 1 0-3 1.5 1.5 0 0 1 0 3zm-16 24a1.5 1.5 0 1 1 0-3 1.5 1.5 0 0 1 0 3zm8 16a1.5 1.5 0 1 1 0-3 1.5 1.5 0 0 1 0 3zm8 8a1.5 1.5 0 1 1 0-3 1.5 1.5 0 0 1 0 3zm0-16a1.5 1.5 0 1 1 0-3 1.5 1.5 0 0 1 0 3zm-24-71a1.5 1.5 0 1 1 0-3 1.5 1.5 0 0 1 0 3zm13 4a1.5 1.5 0 1 1 0-3 1.5 1.5 0 0 1 0 3zm24-32a1.5 1.5 0 1 1 0-3 1.5 1.5 0 0 1 0 3zm-16-32a1.5 1.5 0 1 1 0-3 1.5 1.5 0 0 1 0 3zm-18 16a1.5 1.5 0 1 1 0-3 1.5 1.5 0 0 1 0 3z"/>
    </g>
</svg>
