<svg xmlns="http://www.w3.org/2000/svg" xmlns:xlink="http://www.w3.org/1999/xlink" width="36" height="36" viewBox="0 0 36 36">
    <defs>
        <circle id="a" cx="18" cy="18" r="18"/>
    </defs>
    <g fill="none" fill-rule="evenodd">
        <mask id="b" fill="#fff">
            <use xlink:href="#a"/>
        </mask>
        <use fill="#DEE5F4" xlink:href="#a"/>
        <g fill-rule="nonzero" mask="url(#b)">
            <path fill="#174F79" d="M29.016 27.502a.424.424 0 0 1-.426-.422v-1.658c0-.233.19-.422.426-.422s.427.189.427.422v1.658c0 .233-.191.422-.427.422zM6.066 20.695l-2.028-4.963a.197.197 0 0 1 .245-.259l1.574.51a2.005 2.005 0 0 1 1.239 1.147c.215.527.822.782 1.355.569l1.855-.744 3.602 2.505-7.842 1.235z"/>
            <path fill="#73AFD6" d="M18.088 21.509l-4.435 1.778c-.822.329-1.74.333-2.565.01l-4.665-1.905 2.366-.949 18.036-7.228c.946-.38 2-.074 2.602.682a.83.83 0 0 0 .956.257 1.106 1.106 0 0 1 1.432.6l.027.068a1.088 1.088 0 0 1-.606 1.417l-2.728 1.094-1.326.531-5.175 2.074-3.92 1.571z"/>
            <g fill="#174F79">
                <path d="M10.26 19.854l-4.97 1.992a.622.622 0 0 1-.804-.338.612.612 0 0 1 .34-.797l4.97-1.992a.622.622 0 0 1 .805.338.612.612 0 0 1-.341.797zM22.404 17.034l-6.95 2.786a.622.622 0 0 1-.805-.338.612.612 0 0 1 .34-.797l6.951-2.786a.622.622 0 0 1 .805.338.612.612 0 0 1-.341.797z"/>
            </g>
            <path fill="#174F79" d="M22.537 21.235l-2.172.87a1.977 1.977 0 0 1-2.558-1.072 1.945 1.945 0 0 1 1.084-2.533l2.172-.871 1.474 3.606z"/>
            <path fill="#73AFD6" d="M30.92 29.007h-4.069l-.239-2.508h4.547z"/>
            <path fill="#73AFD6" d="M28.156 27.958h1.46v6.223h-1.46z"/>
            <path fill="#174F79" d="M28.156 29.007h1.46v1h-1.46z"/>
        </g>
    </g>
</svg>
