<svg xmlns="http://www.w3.org/2000/svg" xmlns:xlink="http://www.w3.org/1999/xlink" width="36" height="36" viewBox="0 0 36 36">
    <defs>
        <circle id="a" cx="18" cy="18" r="18"/>
    </defs>
    <g fill="none" fill-rule="evenodd">
        <mask id="b" fill="#fff">
            <use xlink:href="#a"/>
        </mask>
        <use fill="#DEE5F4" xlink:href="#a"/>
        <g fill-rule="nonzero" mask="url(#b)">
            <path fill="#436B1C" d="M7.38 21.564a.706.706 0 0 1-.6-.331c-.433-.693-1.24-1.495-2.169-1.465-.394-.021-.714-.291-.725-.675a.7.7 0 0 1 .682-.718c1.485-.044 2.75 1.068 3.411 2.127a.692.692 0 0 1-.23.959.706.706 0 0 1-.369.103z"/>
            <path fill="#88C057" d="M21.8 12.29a2.626 2.626 0 0 0-2.631-2.428h-.012c.024-.205.01-.422-.057-.649a1.713 1.713 0 0 0-1.422-1.204 1.706 1.706 0 0 0-1.4.473 1.883 1.883 0 0 0-1.258-.485 1.875 1.875 0 0 0-1.887 1.864l.001.01c-1.266.094-2.264 1.138-2.264 2.414 0 .195.026.384.07.566-1.507.062-2.71 1.286-2.71 2.791 0 .51.14.986.38 1.398a2.025 2.025 0 0 0-.113 3.064c1.7-1.373 3.485 3.218 5.588 6.884.698 1.217 8.241-.08 8.842.676.685-.608 1.128-11.208 1.147-12.139.03-1.494-.93-2.768-2.274-3.234z"/>
            <path fill="#EEAF4B" d="M22.765 26.175l.502-.298a2.963 2.963 0 0 1 3.02 0l.503.298c.93.551 2.09.551 3.02 0l1.42-.624c.208-.575.353-.992.411-1.176 1.325-4.212 2.178-8.646 2.294-13.069.047-1.779-1.441-4.553-3.914-3.292-2.43 1.238-4.17 5.987-5.393 8.242-1.737 3.204-3.111 6.69-4.09 10.24a2.96 2.96 0 0 0 2.227-.321z"/>
            <path fill="#ED3F32" d="M4.448 25.46l.947.562a3.471 3.471 0 0 0 3.537 0l.244-.145a2.963 2.963 0 0 1 3.02 0l.503.297a2.958 2.958 0 0 0 1.783.396c.45-1.44.3-3.24-.4-4.457-2.35-4.099-4.305-3.264-6.186-1.485a3.09 3.09 0 0 1-1.282.727c-2.063.583-3.586 1.537-2.72 4.133a.501.501 0 0 1 .554-.028z"/>
            <path fill="#A46F3E" d="M24.553 24.659a.695.695 0 0 1-.666-.92c.47-1.367 1.979-2.099 3.36-1.639a1.244 1.244 0 0 0 1.572-.766.705.705 0 0 1 .894-.436c.368.124.566.52.44.884-.469 1.367-1.977 2.1-3.36 1.638a1.246 1.246 0 0 0-1.572.766.705.705 0 0 1-.668.473zM26.22 19.807a.695.695 0 0 1-.666-.92 2.613 2.613 0 0 1 1.336-1.508 2.658 2.658 0 0 1 2.022-.131 1.242 1.242 0 0 0 1.573-.767.705.705 0 0 1 .893-.436c.369.124.566.52.44.884-.469 1.368-1.976 2.1-3.359 1.639a1.241 1.241 0 0 0-1.572.766.704.704 0 0 1-.667.473zM27.887 14.954a.695.695 0 0 1-.667-.92c.41-1.2 1.735-1.844 2.948-1.438a.92.92 0 0 0 1.162-.565.706.706 0 0 1 .894-.436c.368.124.566.52.44.884a2.292 2.292 0 0 1-1.173 1.322 2.336 2.336 0 0 1-1.776.115.918.918 0 0 0-1.161.566.705.705 0 0 1-.667.472z"/>
            <path fill="#DAE7EF" d="M15.943 17.513c-.666.875-1.717 1.911-1.312 3.742l1.087 4.92h.001l.503-.298a2.963 2.963 0 0 1 3.02 0l.502.298c.409.242.794.322.794.322a49.807 49.807 0 0 1 2.855-7.785c-.545-1.348-1.71-1.8-2.555-2.261a.31.31 0 0 0-.014-.008c-.535-.303-.568-1.027-.166-1.488a.782.782 0 0 0 .177-.682l-.085-.385a.799.799 0 0 0-.949-.6l-4.281.923a.79.79 0 0 0-.608.937l.085.385a.784.784 0 0 0 .462.551c.52.222.839.797.572 1.292a1.076 1.076 0 0 1-.088.137z"/>
            <path fill="#FFF" d="M20.435 15.287l-4.847 1.047a1 1 0 0 1-1.186-.752l-.07-.315a.988.988 0 0 1 .76-1.172l4.847-1.047a1 1 0 0 1 1.186.752l.07.315a.988.988 0 0 1-.76 1.172z"/>
            <path fill="#FBD490" d="M32.461 25.338l-1.23 17.431c-.09 1.74-1.543 3.106-3.306 3.106H8.148c-1.763 0-3.216-1.365-3.306-3.106l-1.2-16.859a.501.501 0 0 1 .759-.45l.947.562a3.471 3.471 0 0 0 3.537 0l.244-.145a2.963 2.963 0 0 1 3.02 0l.503.298c.93.551 2.09.551 3.02 0l.502-.298a2.963 2.963 0 0 1 3.02 0l.503.298c.93.551 2.091.551 3.02 0l.503-.298a2.963 2.963 0 0 1 3.02 0l.502.298c.93.551 2.092.551 3.02 0l2.387-1.048a.222.222 0 0 1 .312.211z"/>
            <path fill="#E0B877" d="M12.096 36.946H7.164a.7.7 0 0 1-.705-.696.7.7 0 0 1 .705-.696h4.932a.7.7 0 0 1 .704.696.7.7 0 0 1-.704.696z"/>
        </g>
    </g>
</svg>
