<svg xmlns="http://www.w3.org/2000/svg" xmlns:xlink="http://www.w3.org/1999/xlink" width="36" height="36" viewBox="0 0 36 36">
    <defs>
        <circle id="a" cx="18" cy="18" r="18"/>
    </defs>
    <g fill="none" fill-rule="evenodd">
        <mask id="b" fill="#fff">
            <use xlink:href="#a"/>
        </mask>
        <use fill="#DEE5F4" xlink:href="#a"/>
        <g fill-rule="nonzero" mask="url(#b)">
            <path fill="#93969B" d="M18.024 35.799h5.666a.65.65 0 0 0 .564-.985l-.005-.009c-.366-.6-.438-1.355-.11-1.976.285-.544.749-.993 1.333-1.268 3.993-1.879 6.824-3.978 7.118-8.262a.709.709 0 0 0-.708-.755H3.71a.709.709 0 0 0-.708.755c.294 4.283 3.125 6.383 7.118 8.262a2.894 2.894 0 0 1 1.334 1.268c.327.621.255 1.376-.111 1.976l-.006.009a.65.65 0 0 0 .565.985h6.12z"/>
            <path fill="#C7CAD3" d="M21.62 34.27h-7.758a.513.513 0 0 1-.517-.51c0-.283.232-.51.517-.51h7.759c.285 0 .517.227.517.51 0 .281-.232.51-.517.51z"/>
            <path fill="#D13834" d="M24.207 10.308c-2.571 0-4.655 2.054-4.655 4.589 0 .358.046.705.124 1.04a.898.898 0 0 0 1.014.197l.202-.092c.565-.258 1.217.113 1.273.724l.02.219c.04.426.382.764.815.802l.222.02c.62.055.996.699.735 1.254l-.094.2c-.031.066-.04.135-.054.204.132.011.264.02.398.02 2.572 0 4.656-2.055 4.656-4.588 0-2.535-2.085-4.589-4.656-4.589z"/>
            <path fill="#436B1C" d="M28.849 15.159c-.139 2.411-2.16 4.326-4.642 4.326a4.72 4.72 0 0 1-.4-.017.87.87 0 0 0 .353.89l.183.127a.878.878 0 0 1 0 1.447l-.183.127a.876.876 0 0 0-.334.46l.02.025h6.926a4.529 4.529 0 0 0 1.192-3.06c.002-2.001-1.301-3.699-3.115-4.325z"/>
            <path fill="#ED3F32" d="M23.476 14.686a.52.52 0 0 1-.366-.15l-1.463-1.441a.504.504 0 0 1 0-.721c.202-.2.529-.2.73 0l1.464 1.441c.202.2.202.522 0 .721a.52.52 0 0 1-.365.15zM26.402 17.57a.52.52 0 0 1-.366-.15l-1.463-1.442a.504.504 0 0 1 0-.72c.202-.2.529-.2.731 0l1.463 1.44c.202.2.202.522 0 .722a.518.518 0 0 1-.365.15zM24.938 14.686a.52.52 0 0 1-.365-.15.504.504 0 0 1 0-.72l1.463-1.442c.202-.2.529-.2.731 0 .202.199.202.521 0 .72l-1.463 1.442a.52.52 0 0 1-.366.15zM22.27 17.314a.52.52 0 0 1-.365-.15.504.504 0 0 1 0-.72l1.205-1.187c.202-.2.529-.2.731 0 .202.2.202.522 0 .721l-1.204 1.187c-.101.1-.234.15-.366.15z"/>
            <path fill="#659C35" d="M30.414 19.485h-2.07a.513.513 0 0 1-.516-.51c0-.282.23-.51.517-.51h2.069c.286 0 .517.228.517.51 0 .282-.231.51-.517.51zM27.31 22.544a.513.513 0 0 1-.517-.51v-2.04c0-.281.231-.51.517-.51.286 0 .518.229.518.51v2.04c0 .282-.232.51-.518.51z"/>
            <path fill="#88C057" d="M15.135 17.844c.503.155.778.721.545 1.218l-.093.2a.878.878 0 0 0 .297 1.096l.184.127a.878.878 0 0 1 0 1.448l-.184.127a.884.884 0 0 0-.346.485h8.276a.883.883 0 0 1 .346-.485l.183-.127a.878.878 0 0 0 0-1.448l-.183-.127a.878.878 0 0 1-.298-1.096l.094-.2a.885.885 0 0 0-.734-1.254l-.223-.02a.893.893 0 0 1-.815-.803l-.02-.219c-.056-.61-.708-.981-1.272-.724l-.202.092a.906.906 0 0 1-1.112-.294l-.13-.18a.906.906 0 0 0-1.469 0l-.128.18a.906.906 0 0 1-1.113.294l-.202-.093c-.565-.257-1.217.114-1.273.724l-.02.22c-.02.225-.124.477-.203.642a.156.156 0 0 0 .095.217z"/>
            <path fill="#A46F3E" d="M9.489 15.547l2.98-4.168a1.57 1.57 0 0 1 2.161-.37 1.52 1.52 0 0 1 .375 2.132l-2.98 4.168a1.57 1.57 0 0 1-2.162.369 1.52 1.52 0 0 1-.374-2.131z"/>
            <path fill="#FBD490" d="M16.067 20.484l-.183-.127a.878.878 0 0 1-.297-1.096l.093-.2a.885.885 0 0 0-.734-1.254l-.223-.02a.892.892 0 0 1-.814-.802l-.02-.22a.892.892 0 0 0-.902-.801l-.961 1.344a1.57 1.57 0 0 1-2.162.37 1.524 1.524 0 0 1-.623-1.57.9.9 0 0 1-.778.025l-.203-.092c-.564-.258-1.216.114-1.272.724l-.02.219a.892.892 0 0 1-.814.802l-.223.02a.885.885 0 0 0-.734 1.254l.093.2a.878.878 0 0 1-.298 1.096l-.182.127a.879.879 0 0 0 0 1.448l.182.127a.88.88 0 0 1 .346.485h10.201a.882.882 0 0 1 .345-.485l.183-.127a.877.877 0 0 0 0-1.447z"/>
            <path fill="#436B1C" d="M18.259 19.23a.52.52 0 0 1-.366-.15.504.504 0 0 1 0-.72l.776-.765c.202-.2.529-.2.731 0 .202.2.202.522 0 .72l-.776.766a.52.52 0 0 1-.365.149zM21.103 20.505a.52.52 0 0 1-.365-.15l-.517-.51a.504.504 0 0 1 0-.72c.202-.2.529-.2.73 0l.518.51c.202.199.202.52 0 .72a.52.52 0 0 1-.366.15zM18.517 21.524a.52.52 0 0 1-.365-.15.504.504 0 0 1 0-.72l.517-.51c.202-.2.529-.2.731 0 .202.2.202.522 0 .72l-.517.51a.52.52 0 0 1-.366.15z"/>
        </g>
    </g>
</svg>
