<svg xmlns="http://www.w3.org/2000/svg" xmlns:xlink="http://www.w3.org/1999/xlink" width="36" height="36" viewBox="0 0 36 36">
    <defs>
        <circle id="a" cx="18" cy="18" r="18"/>
    </defs>
    <g fill="none" fill-rule="evenodd">
        <mask id="b" fill="#fff">
            <use xlink:href="#a"/>
        </mask>
        <use fill="#DEE5F4" xlink:href="#a"/>
        <g fill-rule="nonzero" mask="url(#b)">
            <path fill="#88C057" d="M24.706 18.31c.745.174 1.558.17 2.426-.191 1.492-.621 2.553-2.033 2.586-3.631.037-1.79-1.113-3.316-2.725-3.874-.113-1.625-1.481-2.908-3.156-2.908h-.015c.03-.246.013-.506-.067-.777a2.052 2.052 0 0 0-1.706-1.442 2.048 2.048 0 0 0-1.68.567c-.4-.357-.926-.58-1.509-.58-1.25 0-2.262 1-2.262 2.232v.012c-1.518.113-2.715 1.363-2.715 2.89 0 .234.03.46.084.677-1.808.075-3.251 1.54-3.251 3.342 0 .61.168 1.18.457 1.674a2.439 2.439 0 0 0-.91 1.898c0 1.069.694 1.976 1.66 2.313-.124 4.366 1.455 6.942 4.509 10.412l.165.186.036.04c1.27 1.407 4.135.33 3.519-1.454-3.29-9.525 6.852-8.148 6.852-8.148s.29-2.882-2.327-3.017l.01-.216.02-.005z"/>
            <path fill="#659C35" d="M16.634 31.15l-.036-.04a20.1 20.1 0 0 1-.166-.186c-3.054-3.47-4.633-6.046-4.508-10.412a2.457 2.457 0 0 1-1.66-2.313c0-.765.354-1.448.91-1.898a3.299 3.299 0 0 1-.458-1.674c0-1.802 1.443-3.268 3.251-3.342a2.861 2.861 0 0 1-.083-.677c0-1.213.756-2.249 1.828-2.682a4.301 4.301 0 0 0-.28-.693c-.591-1.156-1.632-1.882-2.582-1.73-.783.126-1.33.757-1.566 1.604-.657-.436-1.385-.605-2.044-.377-1.41.49-1.855 2.492-1.047 4.346l.008.017c-1.53.72-1.936 2.864-.966 4.797.141.282.306.541.485.78-1.689.69-2.135 2.783-1.071 4.611.34.585.794 1.066 1.299 1.43-.24.564-.187 1.258.193 1.898.51.86 1.468 1.37 2.364 1.365 1.576 3.054 3.51 4.238 6.437 5.464l.092.038a1.84 1.84 0 0 1-.4-.326z"/>
            <path fill="#659C35" d="M17.782 17.04a.462.462 0 0 0 .041-.186c.345-.855.759-1.572 1.19-2.17 2.152-.441 3.776.222 3.812.237a.482.482 0 0 0 .632-.243.472.472 0 0 0-.247-.624c-.067-.029-1.391-.587-3.295-.45.93-.957 1.746-1.392 1.868-1.452.698-.33 1.717.096 2.051.289a.48.48 0 0 0 .657-.168.47.47 0 0 0-.17-.649c-.055-.032-1.134-.647-2.24-.523.095-.385.305-.734.412-.874a.469.469 0 0 0-.09-.664.484.484 0 0 0-.672.09c-.03.037-.66.862-.659 1.81-.698.422-2.503 1.702-3.765 4.273a10.73 10.73 0 0 0-.2.436c-1.309-.883-1.093-2.455-1.081-2.531a.475.475 0 0 0-.4-.541.48.48 0 0 0-.549.393c-.139.86.06 2.631 1.678 3.583a13.83 13.83 0 0 0-.711 3.734.464.464 0 0 0-.008.136c-.05 1.024-.002 2.16.165 3.403a2.39 2.39 0 0 1-.905-.847.484.484 0 0 0-.647-.196.47.47 0 0 0-.201.64c.025.047.6 1.096 1.928 1.5.346 1.874.963 3.979 1.96 6.34.329-.021.649-.107.932-.246-.001-.004 0-.008-.002-.013-1.047-2.458-1.679-4.623-2.015-6.536l-.005-.033c-.25-1.436-.33-2.725-.284-3.88.672-1.131 2.647-1.177 2.668-1.177a.477.477 0 0 0 .472-.48.477.477 0 0 0-.48-.468h-.005c-.078.001-1.447.03-2.532.702.132-.938.352-1.768.626-2.506a.454.454 0 0 0 .07-.108z"/>
        </g>
    </g>
</svg>
