<svg xmlns="http://www.w3.org/2000/svg" xmlns:xlink="http://www.w3.org/1999/xlink" width="36" height="36" viewBox="0 0 36 36">
    <defs>
        <circle id="a" cx="18" cy="18" r="18"/>
    </defs>
    <g fill="none" fill-rule="evenodd">
        <mask id="b" fill="#fff">
            <use xlink:href="#a"/>
        </mask>
        <use fill="#DEE5F4" xlink:href="#a"/>
        <g fill-rule="nonzero" mask="url(#b)">
            <path fill="#330C00" d="M18.259 12.306v23.19S5.095 36.858 5.095 30.441c0 0 3.536.446 2.812-2.503-.918-3.739-.405-9.793 0-13.103.404-3.309 10.352-2.53 10.352-2.53z"/>
            <path fill="#330C00" d="M18.216 12.306v23.19s13.164 1.363 13.164-5.054c0 0-3.536.446-2.812-2.503.918-3.739.404-9.793 0-13.103-.405-3.309-10.352-2.53-10.352-2.53z"/>
            <path fill="#00B497" d="M18.488 32.047v-3.379s5.363-.162 5.363 3.084l-5.363.295zM18.029 32.047v-3.379s-5.363-.162-5.363 3.084l5.363.295z"/>
            <g transform="translate(7.899 10.638)">
                <path fill="#FDCC9B" d="M8.23 18.03h4.26v4.771H8.23z"/>
                <path fill="#FCBC85" d="M8.23 18.592s1.792 1.142 4.26.877V18.03H8.23v.562z"/>
                <ellipse cx="2.087" cy="10.632" fill="#FCBC85" rx="2.079" ry="2.372"/>
                <ellipse cx="18.633" cy="10.632" fill="#FCBC85" rx="2.079" ry="2.372"/>
                <path fill="#FDCC9B" d="M18.625 6.102c0-3.493-2.556-6.05-8.265-6.05-5.709 0-8.264 2.557-8.264 6.05s-.597 12.695 8.264 12.695c8.861 0 8.265-9.201 8.265-12.695z"/>
                <g transform="translate(5.812 8.938)">
                    <ellipse cx="1.071" cy="1.188" fill="#3B2519" rx="1" ry="1.079"/>
                    <circle cx=".641" cy=".711" r="1" fill="#FFF"/>
                </g>
                <path fill="#684B37" d="M5.307 7.799c.466.178 1.214-.607 2.927.076.312.125.499-1.064-1.337-1.064-1.59 0-1.872.88-1.59.988z"/>
                <g transform="translate(12.752 8.938)">
                    <ellipse cx="1.121" cy="1.188" fill="#3B2519" rx="1" ry="1.079"/>
                    <circle cx=".692" cy=".711" r="1" fill="#FFF"/>
                </g>
                <path fill="#684B37" d="M15.327 7.799c-.466.178-1.214-.607-2.926.076-.313.125-.499-1.064 1.337-1.064 1.59 0 1.871.88 1.59.988z"/>
                <g>
                    <path fill="#FDCC9B" d="M8.23 18.03h4.26v4.771H8.23z"/>
                    <path fill="#FCBC85" d="M8.23 18.592s1.792 1.142 4.26.877V18.03H8.23v.562z"/>
                    <ellipse cx="2.087" cy="10.632" fill="#FCBC85" rx="2.079" ry="2.372"/>
                    <ellipse cx="18.633" cy="10.632" fill="#FCBC85" rx="2.079" ry="2.372"/>
                    <path fill="#FDCC9B" d="M18.625 6.102c0-3.493-2.556-6.05-8.265-6.05-5.709 0-8.264 2.557-8.264 6.05s-.597 12.695 8.264 12.695c8.861 0 8.265-9.201 8.265-12.695z"/>
                    <g transform="translate(5.812 8.938)">
                        <ellipse cx="1.071" cy="1.188" fill="#3B2519" rx="1" ry="1.079"/>
                        <circle cx=".641" cy=".711" r="1" fill="#FFF"/>
                    </g>
                    <path fill="#684B37" d="M5.307 7.799c.466.178 1.214-.607 2.927.076.312.125.499-1.064-1.337-1.064-1.59 0-1.872.88-1.59.988z"/>
                    <g transform="translate(12.752 8.938)">
                        <ellipse cx="1.121" cy="1.188" fill="#3B2519" rx="1" ry="1.079"/>
                        <circle cx=".692" cy=".711" r="1" fill="#FFF"/>
                    </g>
                    <path fill="#684B37" d="M15.327 7.799c-.466.178-1.214-.607-2.926.076-.313.125-.499-1.064 1.337-1.064 1.59 0 1.871.88 1.59.988z"/>
                </g>
                <circle cx="5.184" cy="13.195" r="1.214" fill="#F9AA8D"/>
                <circle cx="15.685" cy="13.195" r="1.214" fill="#F9AA8D"/>
            </g>
            <path fill="#8FD6E7" d="M18.259 30.585v5.368h-9.33c0-2.173 4.43-5.368 9.33-5.368z"/>
            <path fill="#8FD6E7" d="M18.259 30.585v5.368h9.329c0-2.173-4.43-5.368-9.33-5.368z"/>
            <path fill="#F6B1CF" d="M18.259 35.71v-5.125c-1.365 0-2.689.254-3.895.659l3.895 4.466zM18.259 35.71v-5.125c1.364 0 2.688.254 3.894.659L18.26 35.71z"/>
            <path fill="#F283B4" d="M18.259 30.585c-.993 0-1.963.136-2.884.364.13.797.67 2.432 2.884 2.432s2.752-1.635 2.884-2.432a12.049 12.049 0 0 0-2.884-.364z"/>
            <path fill="#FDCC9B" d="M16.129 30.771s0 1.919 2.13 1.919 2.13-1.919 2.13-1.919-2.21-.805-4.26 0z"/>
            <path fill="#3ABDAA" d="M14.999 30.986c.064-.415-2.481-.11-2.46 1.06.02 1.17 2.811 2.07 3.578 2.497.767.426 2.13 1.41 2.13 1.41s.256-.989-.937-1.751c-1.193-.762-2.396-2.662-2.311-3.216z"/>
            <path fill="#3ABDAA" d="M21.487 30.986c-.063-.415 2.481-.11 2.46 1.06-.02 1.17-2.811 2.07-3.578 2.497-.767.426-2.13 1.41-2.13 1.41s-.256-.989.937-1.751c1.193-.762 2.397-2.662 2.311-3.216z"/>
            <path fill="#401900" d="M18.259 6C8.673 6 7.395 14.37 7.395 20.537c0 6.167 3.193 9.749 5.688 10.75 0 0-3.984-7.06-2.024-13.595 1.603-5.347 7.2-3.768 7.2-3.768s5.596-1.58 7.2 3.768c1.959 6.535-2.025 13.594-2.025 13.594 2.495-1 5.688-4.582 5.688-10.75C29.122 14.37 27.844 6 18.259 6z"/>
            <path fill="#401900" d="M21.5 15.4s-3.598 1.804-6.775 1.442c-3.177-.362-4.397 2.932-4.203 5.111l-1.06-4.851 1.917-3.839 5.463-2.811 5.163.238 2.448 2.126 2.079 2.585 1.461 1.7-.703 5.237-1.488 1.79S27.148 17.41 21.5 15.4z"/>
        </g>
    </g>
</svg>
