<svg xmlns="http://www.w3.org/2000/svg" xmlns:xlink="http://www.w3.org/1999/xlink" width="36" height="36" viewBox="0 0 36 36">
    <defs>
        <circle id="a" cx="18" cy="18" r="18"/>
    </defs>
    <g fill="none" fill-rule="evenodd">
        <mask id="b" fill="#fff">
            <use xlink:href="#a"/>
        </mask>
        <use fill="#DEE5F4" xlink:href="#a"/>
        <g fill-rule="nonzero" mask="url(#b)">
            <g transform="translate(7 9.618)">
                <path fill="#FDCC9B" d="M8.792 18.728h4.491v4.963H8.792z"/>
                <path fill="#FCBC85" d="M8.793 19.313s1.889 1.187 4.49.912v-1.497h-4.49v.585z"/>
                <ellipse cx="2.317" cy="11.032" fill="#FCBC85" rx="2.191" ry="2.467"/>
                <ellipse cx="19.759" cy="11.032" fill="#FCBC85" rx="2.191" ry="2.467"/>
                <path fill="#FDCC9B" d="M19.75 6.32c0-3.633-2.694-6.292-8.712-6.292S2.326 2.687 2.326 6.32c0 3.634-.63 13.206 8.712 13.206 9.34 0 8.712-9.572 8.712-13.206z"/>
                <g transform="translate(5.951 10.3)">
                    <ellipse cx="1.15" cy="1.273" fill="#3B2519" rx="1.097" ry="1.186"/>
                    <ellipse cx=".672" cy=".75" fill="#FFF" rx="1" ry="1"/>
                </g>
                <path fill="#51362A" d="M5.346 8.635c.519.256 1.352-.87 3.259.11.347.178.555-1.527-1.49-1.527-1.769 0-2.082 1.263-1.769 1.417z"/>
                <g transform="translate(13.903 10.3)">
                    <ellipse cx="1.206" cy="1.273" fill="#3B2519" rx="1.097" ry="1.186"/>
                    <ellipse cx=".728" cy=".75" fill="#FFF" rx="1" ry="1"/>
                </g>
                <path fill="#51362A" d="M16.728 8.635c-.518.256-1.351-.87-3.258.11-.348.178-.555-1.527 1.489-1.527 1.77 0 2.083 1.263 1.77 1.417z"/>
            </g>
            <path fill="#F7941E" d="M18.038 30.34v5.584H7.125c0-2.26 5.748-5.584 10.913-5.584z"/>
            <path fill="#F7941E" d="M18.038 30.34v5.584H28.95c0-2.26-5.748-5.584-10.912-5.584z"/>
            <path fill="#F36C21" d="M18.038 30.34c-1.099 0-2.223.152-3.314.41.008.01 1.21 1.54 3.314 1.54 1.948 0 3.244-1.31 3.432-1.512a14.547 14.547 0 0 0-3.432-.438z"/>
            <path fill="#FDCC9B" d="M15.792 30.534s.657.803 2.246.803c1.588 0 2.245-.803 2.245-.803s-2.33-.837-4.49 0z"/>
            <path fill="#51362A" d="M25.2 8.87s-3.233-4.054-9.953-2.525c-6.72 1.528-7.224 5.517-7.022 9.397.202 3.88.741 6.157 1.379 5.875.637-.281.305-2.842.373-3.434.067-.59.673-3.264 4.76-2.865 4.088.399 7.532-1.063 7.532-1.063s1.386 1.729 2.299 2.06c1.823.662 1.225 5.076 1.94 5.076.714 0 4.217-10.194-1.307-12.52z"/>
        </g>
    </g>
</svg>
