<svg xmlns="http://www.w3.org/2000/svg" width="17" height="21" viewBox="0 0 17 21">
    <g fill="none" fill-rule="evenodd">
        <path d="M-4-2h25v25H-4z"/>
        <path fill="#384D9D" fill-rule="nonzero" d="M13.59.803H1.477c-.485 0-.808.323-.808.808v17.766c0 .485.323.808.808.808H13.59a3.24 3.24 0 0 0 3.23-3.23V4.033a3.24 3.24 0 0 0-3.23-3.23zm-2.423 15.344H6.322v-1.615h4.845v1.615zm-2.422-4.038a3.24 3.24 0 0 1-3.23-3.23 3.24 3.24 0 0 1 3.23-3.23 3.24 3.24 0 0 1 3.23 3.23 3.24 3.24 0 0 1-3.23 3.23z"/>
    </g>
</svg>
