<svg xmlns="http://www.w3.org/2000/svg" width="160" height="160" viewBox="0 0 160 160">
    <g fill="none" fill-rule="evenodd">
        <path fill="none" d="M-16-16h192v192H-16z"/>
        <g>
            <circle cx="80" cy="80" r="80" fill="#F0F3F5"/>
            <path fill="#6CD7AB" fill-rule="nonzero" d="M119.163 38.423c-1.062.558-2.304-.344-2.1-1.527l1.496-8.726-6.34-6.18c-.86-.838-.385-2.297.802-2.47l8.762-1.273 3.919-7.94c.53-1.076 2.065-1.076 2.596 0l3.919 7.94 8.762 1.273c1.187.173 1.662 1.632.802 2.47l-6.34 6.18 1.497 8.726c.203 1.183-1.039 2.085-2.101 1.527L127 34.303l-7.837 4.12z"/>
            <path fill="#CBD2E6" fill-rule="nonzero" d="M48.1 52.975a1 1 0 0 1-1.452-1.054l1.034-6.027-4.379-4.268a1 1 0 0 1 .554-1.706l6.052-.88 2.706-5.483a1 1 0 0 1 1.793 0l2.707 5.484 6.051.88a1 1 0 0 1 .554 1.705l-4.379 4.268 1.034 6.027a1 1 0 0 1-1.45 1.054l-5.413-2.845-5.413 2.845z"/>
            <path fill="#D6D5C1" fill-rule="nonzero" d="M62.643 143.274a.714.714 0 0 1-1.037-.754l.739-4.306-3.128-3.05a.715.715 0 0 1 .395-1.22l4.324-.627 1.933-3.919a.714.714 0 0 1 1.282 0l1.933 3.919 4.324.628c.586.085.82.805.395 1.219l-3.128 3.05.739 4.306a.714.714 0 0 1-1.037.754l-3.867-2.034-3.867 2.034z"/>
        </g>
        <g transform="translate(0 22)">
            <path fill="#FFD0A1" d="M94 44h28c4.42 0 8 4.7 8 9.12 0 4.42-3.44 6.38-8 6.88 4.42 0 8 3.58 8 8s-3.58 8-8 8h-4c4.42 0 8 3.58 8 8s-3.58 8-8 8h-6c3.24 0 6 2.84 6 6s-2.96 6-6 6H82c-16 0-14-6-28-8h-8V48h8c4 0 10-4 16-10 8-8 8-18 8-34 0-2.3 1.58-4 4-4 8 0 12 4 12 12v32z"/>
            <path fill="#384D9D" d="M14.54 104H46V44H1.22A80.495 80.495 0 0 0 0 58c0 17.122 5.38 32.988 14.54 46z"/>
            <circle cx="30" cy="92" r="4" fill="#DCE3E9"/>
        </g>
    </g>
</svg>
