<svg xmlns="http://www.w3.org/2000/svg" xmlns:xlink="http://www.w3.org/1999/xlink" width="36" height="36" viewBox="0 0 36 36">
    <defs>
        <circle id="a" cx="18" cy="18" r="18"/>
    </defs>
    <g fill="none" fill-rule="evenodd">
        <mask id="b" fill="#fff">
            <use xlink:href="#a"/>
        </mask>
        <use fill="#DEE5F4" xlink:href="#a"/>
        <g fill-rule="nonzero" mask="url(#b)">
            <path fill="#174F79" d="M29.121 13.646l-1.094-5.248a.197.197 0 0 0-.348-.078L26.66 9.623a2.005 2.005 0 0 0-.386 1.643 1.044 1.044 0 0 1-.805 1.23l-1.954.42-1.586 4.092 7.192-3.362z"/>
            <path fill="#73AFD6" d="M19.61 21.044l4.67-1.007a3.485 3.485 0 0 0 2.133-1.425l2.802-4.189-2.492.537-18.995 4.093a2.257 2.257 0 0 0-1.775 2.02.83.83 0 0 1-.65.749c-.59.127-.973.711-.85 1.298l.014.071c.123.587.706.963 1.296.836l2.873-.619 1.396-.3 5.45-1.175 4.128-.89z"/>
            <g fill="#174F79">
                <path d="M25.174 15.294l5.233-1.128a.622.622 0 0 0 .479-.73.612.612 0 0 0-.729-.47l-5.233 1.128a.622.622 0 0 0-.478.73c.069.33.396.542.728.47zM13.529 19.747l7.32-1.577a.622.622 0 0 0 .478-.73.612.612 0 0 0-.728-.47l-7.32 1.577a.622.622 0 0 0-.478.73c.068.33.396.542.728.47z"/>
            </g>
            <path fill="#174F79" d="M15.768 23.305l2.288-.493a1.977 1.977 0 0 0 1.52-2.32 1.945 1.945 0 0 0-2.315-1.494l-2.288.493.795 3.814z"/>
            <g>
                <path fill="#174F79" d="M6.016 27.502a.424.424 0 0 1-.426-.422v-1.658c0-.233.19-.422.426-.422s.427.189.427.422v1.658c0 .233-.191.422-.427.422z"/>
                <path fill="#73AFD6" d="M7.92 29.007H3.852l-.239-2.508H8.16z"/>
                <path fill="#73AFD6" d="M5.156 27.958h1.46v6.223h-1.46z"/>
                <path fill="#174F79" d="M5.156 29.007h1.46v1h-1.46z"/>
            </g>
        </g>
    </g>
</svg>
