<svg xmlns="http://www.w3.org/2000/svg" width="66" height="63" viewBox="0 0 66 63">
    <g fill="none" fill-rule="evenodd">
        <path d="M-9-10h83v83H-9z"/>
        <g fill-rule="nonzero">
            <path fill="#5569B5" d="M62.786 7.837a6.82 6.82 0 0 0-5.057-5.507L50.352.476A15.776 15.776 0 0 0 46.506 0H18.69c-1.297 0-2.588.16-3.846.476L7.466 2.33a6.82 6.82 0 0 0-5.057 5.507L.053 22.05a2.28 2.28 0 0 0 1.46 2.516l10.692 3.909v32.449c0 .629.508 1.139 1.133 1.139h38.519c.626 0 1.133-.51 1.133-1.14V28.477l10.692-3.91a2.28 2.28 0 0 0 1.46-2.515L62.786 7.837z"/>
            <path fill="#425393" d="M47.325.023A15.605 15.605 0 0 0 46.506 0H18.69c-.273 0-.546.009-.819.023.012 8.167 6.601 14.784 14.728 14.784 8.126 0 14.715-6.617 14.727-14.784zM11.072 15.946c-.625 0-1.133.51-1.133 1.14v10.561l2.266.829v-11.39c0-.63-.507-1.14-1.133-1.14zM54.123 15.946c.625 0 1.133.51 1.133 1.14v10.561l-2.266.829v-11.39c0-.63.507-1.14 1.133-1.14z"/>
        </g>
    </g>
</svg>
