<svg xmlns="http://www.w3.org/2000/svg" width="17" height="13" viewBox="0 0 17 13">
    <g fill="none" fill-rule="evenodd">
        <path d="M-4-6h25v25H-4z"/>
        <path fill="#384D9D" fill-rule="nonzero" d="M16.292 0H.708C.318 0 0 .291 0 .65v11.7c0 .359.317.65.708.65h15.584c.39 0 .708-.291.708-.65V.65c0-.359-.317-.65-.708-.65zM5.667 3.9c.782 0 1.416.627 1.416 1.4 0 .773-.634 1.4-1.416 1.4A1.408 1.408 0 0 1 4.25 5.3c0-.773.634-1.4 1.417-1.4zM2.833 9.5c0-1.16.952-2.1 2.125-2.1h1.417c1.174 0 2.125.94 2.125 2.1H2.833zm11.334-.7h-4.25V7.4h4.25v1.4zm0-2.8h-4.25V4.6h4.25V6z"/>
    </g>
</svg>
