<svg xmlns="http://www.w3.org/2000/svg" width="9" height="18" viewBox="0 0 9 18">
    <path fill="#FFF" fill-rule="nonzero" d="M8.019.004L6.023 0c-2.242 0-3.69 1.723-3.69 4.39v2.024H.326c-.173 0-.314.163-.314.364V9.71c0 .201.14.364.314.364h2.007v7.4c0 .2.14.363.313.363h2.618c.174 0 .314-.163.314-.363v-7.4h2.346c.173 0 .314-.163.314-.364V6.778a.396.396 0 0 0-.091-.258.294.294 0 0 0-.222-.106H5.578V4.698c0-.825.17-1.243 1.096-1.243H8.02c.173 0 .313-.164.313-.365V.367c0-.2-.14-.363-.313-.363z"/>
</svg>
