<svg xmlns="http://www.w3.org/2000/svg" width="20" height="20" viewBox="0 0 20 20">
    <g fill="none" fill-rule="evenodd">
        <path fill="none" d="M-1.94-2h24v24h-24z"/>
        <path fill="#384D9D" d="M18.468 13.222a.992.992 0 0 0-1.339.431C15.756 16.334 13.048 18 10.061 18a7.884 7.884 0 0 1-5.943-2.706l1.789.253a.99.99 0 0 0 1.123-.851 1 1 0 0 0-.845-1.13l-3.937-.556a.983.983 0 0 0-1.124.851l-.553 3.961a.999.999 0 0 0 .985 1.139c.489 0 .913-.362.984-.861l.19-1.361A9.862 9.862 0 0 0 10.06 20c3.735 0 7.121-2.081 8.837-5.431a1.003 1.003 0 0 0-.429-1.347M1.225 5.43C2.94 2.081 6.326 0 10.06 0a9.862 9.862 0 0 1 7.33 3.261l.19-1.361a.987.987 0 0 1 1.124-.851.998.998 0 0 1 .846 1.129l-.554 3.961a.995.995 0 0 1-1.123.851l-3.937-.557a.998.998 0 0 1-.845-1.129.985.985 0 0 1 1.123-.851l1.788.253A7.886 7.886 0 0 0 10.061 2C7.074 2 4.365 3.665 2.992 6.347a.993.993 0 0 1-1.339.431 1.004 1.004 0 0 1-.428-1.348"/>
    </g>
</svg>
