<svg xmlns="http://www.w3.org/2000/svg" width="42" height="27" viewBox="0 0 42 27">
    <g fill="none" fill-rule="nonzero">
        <path fill="#A2A7AF" d="M26.238 13.108c0 7.185-5.82 13.006-13.001 13.006-7.182 0-13.002-5.823-13.002-13.006S6.056.103 13.237.103c7.18 0 13.001 5.822 13.001 13.005z"/>
        <path fill="#C5CCD6" d="M28.851.103c-2.915 0-5.6.971-7.77 2.593l.011.001c.427.413.898.703 1.26 1.177l-2.705.043c-.424.428-.81.894-1.174 1.378h4.77c.363.435.699.814 1.003 1.295h-6.638c-.243.419-.468.85-.665 1.297h8.059c.21.446.399.783.56 1.255h-9.096c-.144.448-.268.907-.362 1.376h9.838c.096.45.17.866.221 1.29H15.91c-.043.428-.065.862-.065 1.3h10.393c0 .46-.032.887-.08 1.301H15.91c.045.441.11.874.195 1.3h9.822c-.101.422-.218.846-.365 1.286h-9.125c.138.444.306.876.49 1.298h8.076c-.224.473-.478.851-.757 1.295h-6.66c.262.455.552.89.867 1.306l4.791.071c-.408.49-.932.786-1.41 1.215.026.02-.763-.003-2.317-.027a12.958 12.958 0 0 0 9.335 3.961c7.183 0 13.006-5.823 13.006-13.006S36.036.103 28.851.103z"/>
    </g>
</svg>
