<svg xmlns="http://www.w3.org/2000/svg" xmlns:xlink="http://www.w3.org/1999/xlink" width="161" height="160" viewBox="0 0 161 160">
    <defs>
        <circle id="a" cx="80" cy="80" r="80"/>
    </defs>
    <g fill="none" fill-rule="evenodd">
        <path fill="none" d="M-15.94-16h192v192h-192z"/>
        <g transform="translate(.06)">
            <mask id="b" fill="#fff">
                <use xlink:href="#a"/>
            </mask>
            <use fill="#F1F3F6" xlink:href="#a"/>
            <g fill-rule="nonzero" mask="url(#b)">
                <path fill="#E6E9EE" d="M71.174 151.59H6.826A4.821 4.821 0 0 1 2 146.773v-44.956C2 99.157 4.16 97 6.826 97h64.348A4.821 4.821 0 0 1 76 101.817v44.956c0 2.66-2.16 4.817-4.826 4.817z"/>
                <path fill="#D0D5DC" d="M2 106.429h74v12.845H2z"/>
                <path fill="#FFF" d="M12.234 129.214h30.565v6.422H12.234z"/>
            </g>
            <g fill-rule="nonzero" mask="url(#b)">
                <path fill="#E6E9EE" d="M166.174 64.59h-64.348A4.821 4.821 0 0 1 97 59.773V14.817c0-2.66 2.16-4.817 4.826-4.817h64.348A4.821 4.821 0 0 1 171 14.817v44.956c0 2.66-2.16 4.817-4.826 4.817z"/>
                <path fill="#D0D5DC" d="M97 19.429h74v12.845H97z"/>
                <path fill="#FFF" d="M107.234 42.214h30.565v6.422h-30.565z"/>
            </g>
        </g>
        <g fill-rule="nonzero">
            <path fill="#D8E0F5" d="M121.87 110.478H40.13a6.13 6.13 0 0 1-6.13-6.13V47.13A6.13 6.13 0 0 1 40.13 41h81.74a6.13 6.13 0 0 1 6.13 6.13v57.218a6.13 6.13 0 0 1-6.13 6.13z"/>
            <path fill="#223E49" d="M34 53.261h94v16.348H34z"/>
            <path fill="#FFF" d="M46.261 81.87h38.826v8.174H46.261z"/>
            <path fill="#A68D0C" d="M109.609 106.391a2.044 2.044 0 0 1-2.044-2.043v-8.174c0-3.38-2.75-6.13-6.13-6.13s-6.13 2.75-6.13 6.13v8.174a2.044 2.044 0 0 1-4.088 0v-8.174c0-5.634 4.584-10.217 10.218-10.217s10.217 4.583 10.217 10.217v8.174a2.044 2.044 0 0 1-2.043 2.043z"/>
            <path fill="#EFD358" d="M115.74 135H87.13a4.086 4.086 0 0 1-4.087-4.087v-24.522a4.086 4.086 0 0 1 4.087-4.087h28.61a4.086 4.086 0 0 1 4.086 4.087v24.522A4.086 4.086 0 0 1 115.74 135z"/>
            <path fill="#A68D0C" d="M105.522 116.609a4.086 4.086 0 0 0-4.087-4.087 4.086 4.086 0 0 0-4.087 4.087c0 1.508.827 2.812 2.043 3.52v6.697h4.087v-6.696c1.216-.71 2.044-2.013 2.044-3.521z"/>
        </g>
    </g>
</svg>
