<svg xmlns="http://www.w3.org/2000/svg" width="48" height="16" viewBox="0 0 48 16">
    <path fill="#A2A7AF" fill-rule="nonzero" d="M44.749.814h-3.004c-.933 0-1.627.254-2.037 1.184l-5.773 13.074h4.083s.666-1.758.817-2.143l4.979.006c.116.498.474 2.137.474 2.137h3.607L44.749.814zm-4.795 9.196c.32-.819 1.549-3.987 1.549-3.987-.021.039.317-.825.518-1.362l.262 1.23.9 4.119h-3.23zm-5.747.394c-.028 2.963-2.684 4.875-6.771 4.875-1.743-.018-3.422-.361-4.332-.76l.547-3.193.5.228c1.278.532 2.105.747 3.662.747 1.117 0 2.313-.438 2.325-1.393.007-.625-.501-1.07-2.016-1.77-1.476-.683-3.43-1.827-3.405-3.876.02-2.773 2.729-4.708 6.57-4.708 1.507 0 2.714.31 3.484.599l-.526 3.092-.351-.165a7.178 7.178 0 0 0-2.91-.546c-1.522 0-2.228.634-2.228 1.227-.008.668.824 1.108 2.184 1.77 2.247 1.015 3.284 2.252 3.267 3.873zM.06.962L.11.676h6.028c.813.031 1.468.29 1.694 1.159l1.31 6.304C7.857 4.842 4.753 2.099.062.962zm17.58-.15L11.52 15.051l-4.114.007L3.923 3.161c2.503 1.602 4.635 4.144 5.386 5.914l.406 1.469L13.523.815l4.119-.003zM19.215.8h3.89L20.67 15.066h-3.888L19.213.8z"/>
</svg>
